<svg width="48" height="48" viewBox="0 0 48 48" fill="none" xmlns="http://www.w3.org/2000/svg">
<path d="M45.3491 0H2.64928C1.18712 0 0 1.18475 0 2.64928V45.3491C0 46.8137 1.18712 48 2.64928 48H25.6376V29.4116H19.3827V22.1664H25.6376V16.8236C25.6376 10.6248 29.4226 7.24758 34.9536 7.24758C37.6052 7.24758 39.8791 7.44596 40.5422 7.53211V14.0115L36.7058 14.013C33.6985 14.013 33.1184 15.4428 33.1184 17.5396V22.164H40.2932L39.3551 29.4084H33.1176V47.9976H45.3483C46.8121 47.9976 48 46.8097 48 45.3491V2.6477C47.9992 1.18475 46.8129 0 45.3491 0Z" fill="#E85C1F"/>
</svg>
