<svg width="48" height="48" viewBox="0 0 48 48" fill="none" xmlns="http://www.w3.org/2000/svg">
<path d="M43.4715 33.5415C43.4715 34.8455 43.2147 36.1368 42.7156 37.3415C42.2166 38.5463 41.4852 39.641 40.5631 40.5631C39.641 41.4852 38.5463 42.2166 37.3415 42.7156C36.1368 43.2147 34.8455 43.4715 33.5415 43.4715H14.4585C11.8249 43.4715 9.29917 42.4253 7.43693 40.5631C5.57469 38.7008 4.5285 36.1751 4.5285 33.5415V14.457C4.5285 11.8234 5.57469 9.29767 7.43693 7.43543C9.29917 5.57319 11.8249 4.527 14.4585 4.527H33.5415C36.1751 4.527 38.7008 5.57319 40.5631 7.43543C42.4253 9.29767 43.4715 11.8234 43.4715 14.457V33.5415V33.5415ZM48 14.457C48 6.4725 41.526 0 33.54 0H14.46C6.4725 0 0 6.4725 0 14.457V33.5415C0 41.526 6.474 48 14.46 48H33.54C37.375 48 41.053 46.4765 43.7648 43.7648C46.4765 41.053 48 37.375 48 33.54V14.457ZM24.081 31.902C22.0679 31.8996 20.138 31.0989 18.7146 29.6754C17.2911 28.252 16.4904 26.3221 16.488 24.309C16.4904 22.2959 17.2911 20.366 18.7146 18.9426C20.138 17.5191 22.0679 16.7184 24.081 16.716C26.0942 16.718 28.0243 17.5186 29.4479 18.9421C30.8714 20.3657 31.672 22.2958 31.674 24.309C31.672 26.3222 30.8714 28.2523 29.4479 29.6759C28.0243 31.0994 26.0942 31.9 24.081 31.902V31.902ZM24.081 12.456C17.5455 12.456 12.228 17.7735 12.228 24.309C12.228 30.846 17.5455 36.162 24.081 36.162C30.618 36.162 35.9355 30.846 35.9355 24.309C35.9355 17.7735 30.618 12.456 24.081 12.456V12.456ZM36.627 8.8365C36.2564 8.8365 35.8894 8.9095 35.547 9.05133C35.2046 9.19316 34.8934 9.40105 34.6314 9.66312C34.3693 9.92519 34.1614 10.2363 34.0196 10.5787C33.8777 10.9211 33.8047 11.2881 33.8047 11.6588C33.8047 12.0294 33.8777 12.3964 34.0196 12.7388C34.1614 13.0812 34.3693 13.3923 34.6314 13.6544C34.8934 13.9165 35.2046 14.1243 35.547 14.2662C35.8894 14.408 36.2564 14.481 36.627 14.481C37.3755 14.481 38.0934 14.1837 38.6226 13.6544C39.1519 13.1251 39.4492 12.4073 39.4492 11.6588C39.4492 10.9102 39.1519 10.1924 38.6226 9.66312C38.0934 9.13384 37.3755 8.8365 36.627 8.8365V8.8365Z" fill="#E85C1F"/>
</svg>
