<svg width="242" height="60" viewBox="0 0 242 60" fill="none" xmlns="http://www.w3.org/2000/svg">
<path d="M7.90002 49.2069C5.46002 49.2069 3.62002 48.8069 2.38002 48.0069C1.14002 47.2069 0.500022 45.8869 0.460022 44.0469C0.460022 43.6469 0.680022 43.4469 1.12002 43.4469C1.48002 43.4469 2.02002 43.5469 2.74002 43.7469C3.50002 43.9069 4.92002 43.9869 7.00002 43.9869C10.52 43.9869 13.76 43.6269 16.72 42.9069C19.68 42.1469 22.24 41.1469 24.4 39.9069C26.6 38.6269 28.3 37.2069 29.5 35.6469C30.7 34.0469 31.3 32.3869 31.3 30.6669C31.3 29.1069 30.82 27.8669 29.86 26.9469C28.94 25.9869 27.7 25.2669 26.14 24.7869C24.62 24.2669 22.94 23.9269 21.1 23.7669C19.3 23.6069 17.52 23.5269 15.76 23.5269C15 23.5269 14.24 23.5469 13.48 23.5869C12.72 23.5869 12 23.5869 11.32 23.5869C10.44 26.6269 9.58002 29.7669 8.74002 33.0069C7.90002 36.2469 7.02002 39.4269 6.10002 42.5469C4.90002 42.5469 3.86002 42.2269 2.98002 41.5869C2.10002 40.9469 1.66002 40.1669 1.66002 39.2469C1.66002 38.8869 1.72002 38.4269 1.84002 37.8669C2.00002 37.2669 2.22002 36.5669 2.50002 35.7669C2.74002 35.0069 3.14002 33.7469 3.70002 31.9869C4.30002 30.2269 5.00002 28.1469 5.80002 25.7469C6.60002 23.3469 7.48002 20.8269 8.44002 18.1869C9.44002 15.5069 10.46 12.8869 11.5 10.3269C12.58 7.7669 13.64 5.4669 14.68 3.4269C13.08 3.7869 11.76 4.2069 10.72 4.6869C9.68002 5.1669 8.86002 5.5869 8.26002 5.9469C7.66002 6.3069 7.20002 6.4869 6.88002 6.4869C6.64002 6.4869 6.32002 6.3469 5.92002 6.0669C5.56002 5.7869 5.22002 5.4669 4.90002 5.1069C4.62002 4.7469 4.48002 4.4269 4.48002 4.1469C6.64002 3.2669 8.88002 2.4869 11.2 1.8069C13.52 1.1269 16.32 0.786896 19.6 0.786896C21.04 0.786896 22.62 0.906896 24.34 1.1469C26.06 1.3469 27.7 1.7869 29.26 2.4669C30.82 3.1069 32.1 4.0869 33.1 5.4069C34.14 6.6869 34.66 8.4069 34.66 10.5669C34.66 12.2869 34.28 13.7869 33.52 15.0669C32.8 16.3069 31.82 17.3869 30.58 18.3069C29.34 19.1869 27.98 19.9269 26.5 20.5269C25.02 21.0869 23.56 21.5469 22.12 21.9069C25.44 22.3469 28.04 23.1069 29.92 24.1869C31.8 25.2669 33.12 26.4669 33.88 27.7869C34.64 29.1069 35.02 30.3669 35.02 31.5669C35.02 33.9269 34.4 36.0469 33.16 37.9269C31.92 39.8069 30.28 41.4469 28.24 42.8469C26.24 44.2469 24.02 45.4069 21.58 46.3269C19.18 47.2869 16.78 48.0069 14.38 48.4869C11.98 48.9669 9.82002 49.2069 7.90002 49.2069ZM11.92 21.3069C14.16 21.2269 16.36 20.9669 18.52 20.5269C20.68 20.0869 22.62 19.4469 24.34 18.6069C26.1 17.7269 27.5 16.6069 28.54 15.2469C29.58 13.8469 30.1 12.1269 30.1 10.0869C30.1 8.1669 29.58 6.6869 28.54 5.6469C27.5 4.6069 26.14 3.8869 24.46 3.4869C22.78 3.0869 20.98 2.8869 19.06 2.8869H18.82C17.46 5.5669 16.22 8.4869 15.1 11.6469C13.98 14.7669 12.92 17.9869 11.92 21.3069ZM41.5834 45.7869C40.2234 45.7869 39.1034 45.1669 38.2234 43.9269C37.3834 42.6469 36.9634 41.1869 36.9634 39.5469C36.9634 38.4269 37.1434 37.1069 37.5034 35.5869C37.8634 34.0669 38.3234 32.5869 38.8834 31.1469C39.4834 29.7069 40.0834 28.5069 40.6834 27.5469C41.3234 26.5869 41.9034 26.1069 42.4234 26.1069C42.7034 26.1069 43.1234 26.2669 43.6834 26.5869C44.2834 26.8669 44.8034 27.2269 45.2434 27.6669C44.8034 28.3069 44.2634 29.2869 43.6234 30.6069C43.0234 31.9269 42.4834 33.3469 42.0034 34.8669C41.5234 36.3869 41.2834 37.7669 41.2834 39.0069C41.2834 39.1669 41.3034 39.5469 41.3434 40.1469C41.4234 40.7469 41.5834 41.3069 41.8234 41.8269C42.0634 42.3469 42.4834 42.6069 43.0834 42.6069C43.7634 42.6069 44.4834 42.2469 45.2434 41.5269C46.0434 40.7669 46.8434 39.8069 47.6434 38.6469C48.4834 37.4469 49.2834 36.1669 50.0434 34.8069C50.8434 33.4469 51.5434 32.1269 52.1434 30.8469C52.7834 29.5669 53.3034 28.4869 53.7034 27.6069C54.0634 27.6469 54.5234 27.7469 55.0834 27.9069C55.6834 28.0669 56.2034 28.2869 56.6434 28.5669C57.0834 28.8069 57.3034 29.1669 57.3034 29.6469C57.3034 29.7669 57.1034 30.2669 56.7034 31.1469C56.3434 31.9869 55.9034 33.0069 55.3834 34.2069C54.9034 35.4069 54.4634 36.6469 54.0634 37.9269C53.7034 39.1669 53.5234 40.2669 53.5234 41.2269C53.5234 41.7869 53.6234 42.2869 53.8234 42.7269C54.0634 43.1269 54.5034 43.3269 55.1434 43.3269C55.9834 43.3269 56.9834 42.9469 58.1434 42.1869C59.3034 41.4269 60.5034 40.3269 61.7434 38.8869C62.9834 37.4469 64.0834 35.7269 65.0434 33.7269L65.9434 34.4469C65.0634 36.6069 63.9234 38.5469 62.5234 40.2669C61.1234 41.9869 59.6234 43.3269 58.0234 44.2869C56.4234 45.2869 54.8634 45.7869 53.3434 45.7869C52.1834 45.7869 51.3034 45.5069 50.7034 44.9469C50.1434 44.4269 49.7634 43.7469 49.5634 42.9069C49.3634 42.0269 49.2434 41.1469 49.2034 40.2669V39.0669C48.5234 40.1469 47.7834 41.2069 46.9834 42.2469C46.1834 43.2469 45.3234 44.0869 44.4034 44.7669C43.5234 45.4469 42.5834 45.7869 41.5834 45.7869ZM74.6078 45.5469C73.1278 45.5469 71.9278 45.1469 71.0078 44.3469C70.0878 43.5869 69.6278 42.5469 69.6278 41.2269C69.6278 40.1069 69.9078 38.9069 70.4678 37.6269C71.0278 36.3469 71.5878 35.0869 72.1478 33.8469C72.7478 32.6069 73.0478 31.5069 73.0478 30.5469C73.0478 29.6269 72.7478 28.8669 72.1478 28.2669C71.5478 27.6269 70.8478 27.1069 70.0478 26.7069C69.1678 28.9069 68.1678 31.0469 67.0478 33.1269C65.9678 35.1669 65.0878 36.7669 64.4078 37.9269L63.5078 36.1869C64.0678 35.1469 64.8078 33.6669 65.7278 31.7469C66.6478 29.8269 67.5278 27.6869 68.3678 25.3269C67.9678 24.9269 67.7678 24.3869 67.7678 23.7069C67.7678 22.6669 68.0878 21.6869 68.7278 20.7669C69.3678 19.8469 69.9878 19.3869 70.5878 19.3869C71.0678 19.3869 71.4078 19.6669 71.6078 20.2269C71.8478 20.7469 71.9678 21.1069 71.9678 21.3069C71.9678 21.5069 71.8678 21.8669 71.6678 22.3869C71.5078 22.9069 71.3878 23.2869 71.3078 23.5269C71.3478 23.9669 71.6878 24.4069 72.3278 24.8469C73.0078 25.2469 73.7678 25.7269 74.6078 26.2869C75.4478 26.8469 76.1878 27.5469 76.8278 28.3869C77.4678 29.2269 77.7878 30.2869 77.7878 31.5669C77.7878 32.7269 77.5278 33.9069 77.0078 35.1069C76.4878 36.3069 75.9678 37.4269 75.4478 38.4669C74.9278 39.5069 74.6678 40.4069 74.6678 41.1669C74.6678 41.7269 74.8078 42.1069 75.0878 42.3069C75.4078 42.4669 75.7678 42.5469 76.1678 42.5469C77.1278 42.5469 78.1278 42.2669 79.1678 41.7069C80.2078 41.1069 81.2278 40.3469 82.2278 39.4269C83.2278 38.5069 84.1078 37.5469 84.8678 36.5469C85.6278 35.5069 86.2078 34.5669 86.6078 33.7269L88.0478 34.8069C87.2878 36.5269 86.1878 38.2269 84.7478 39.9069C83.3078 41.5469 81.7078 42.9069 79.9478 43.9869C78.1878 45.0269 76.4078 45.5469 74.6078 45.5469ZM88.3047 60.7869C87.3047 60.7869 86.3647 60.4869 85.4847 59.8869C84.6447 59.2869 84.2247 58.3069 84.2247 56.9469C84.2247 55.6669 84.5847 54.5069 85.3047 53.4669C86.0647 52.4669 87.0447 51.5269 88.2447 50.6469C89.4847 49.8069 90.8047 49.0269 92.2047 48.3069C93.6047 47.5869 94.9647 46.9069 96.2847 46.2669C96.7247 45.1869 97.1447 44.0269 97.5447 42.7869C97.9447 41.5469 98.3247 40.2069 98.6847 38.7669C97.2847 40.5269 95.8047 41.9869 94.2447 43.1469C92.7247 44.3069 91.1647 44.8869 89.5647 44.8869C87.9647 44.8869 86.6847 44.3269 85.7247 43.2069C84.8047 42.0869 84.3447 40.6069 84.3447 38.7669C84.3447 36.6469 84.8647 34.6669 85.9047 32.8269C86.9847 30.9469 88.3647 29.2869 90.0447 27.8469C91.7247 26.3669 93.5247 25.2269 95.4447 24.4269C97.3647 23.5869 99.2047 23.1669 100.965 23.1669C102.245 23.1669 103.205 23.4069 103.845 23.8869C104.485 24.3269 104.805 24.8469 104.805 25.4469C104.805 25.9269 104.665 26.3069 104.385 26.5869C104.105 26.8669 103.925 27.0269 103.845 27.0669C103.445 26.6269 103.025 26.3469 102.585 26.2269C102.185 26.0669 101.705 25.9869 101.145 25.9869C99.5847 25.9869 98.0847 26.4269 96.6447 27.3069C95.2047 28.1869 93.9247 29.3269 92.8047 30.7269C91.7247 32.0869 90.8647 33.5069 90.2247 34.9869C89.5847 36.4669 89.2647 37.8069 89.2647 39.0069C89.2647 39.8069 89.4447 40.4269 89.8047 40.8669C90.1647 41.2669 90.6047 41.4669 91.1247 41.4669C92.2447 41.4669 93.6047 40.7469 95.2047 39.3069C96.8047 37.8269 98.3447 36.0469 99.8247 33.9669C99.9447 33.3669 100.065 32.8269 100.185 32.3469C100.585 30.7469 101.065 29.5669 101.625 28.8069C102.185 28.0469 102.965 27.6669 103.965 27.6669C104.165 27.6669 104.405 27.6869 104.685 27.7269C105.005 27.7669 105.345 27.8269 105.705 27.9069C105.705 28.6269 105.505 29.8069 105.105 31.4469C104.705 33.0869 104.165 35.0069 103.485 37.2069C102.805 39.3669 102.045 41.5869 101.205 43.8669C102.445 43.3469 103.705 42.6269 104.985 41.7069C106.265 40.7469 107.445 39.6069 108.525 38.2869C109.605 36.9269 110.425 35.4269 110.985 33.7869L112.065 34.8669C111.425 36.7069 110.425 38.3869 109.065 39.9069C107.745 41.4269 106.305 42.7469 104.745 43.8669C103.185 44.9469 101.745 45.7869 100.425 46.3869C99.3447 49.0269 98.1647 51.4269 96.8847 53.5869C95.6447 55.7869 94.3047 57.5269 92.8647 58.8069C91.4647 60.1269 89.9447 60.7869 88.3047 60.7869ZM88.0647 58.0269C88.7847 58.0269 89.7647 57.3469 91.0047 55.9869C92.2847 54.6269 93.6647 52.3269 95.1447 49.0869C93.6647 49.8069 92.3047 50.5469 91.0647 51.3069C89.8247 52.0669 88.8247 52.8669 88.0647 53.7069C87.3047 54.5469 86.9247 55.4269 86.9247 56.3469C86.9247 57.4669 87.3047 58.0269 88.0647 58.0269ZM116.464 46.6269C113.904 46.6269 111.924 45.9269 110.524 44.5269C109.164 43.1669 108.484 41.4469 108.484 39.3669C108.484 37.6069 108.924 35.7469 109.804 33.7869C110.724 31.7869 111.944 29.9269 113.464 28.2069C114.984 26.4469 116.664 25.0269 118.504 23.9469C120.344 22.8669 122.184 22.3269 124.024 22.3269C125.064 22.3269 126.044 22.6069 126.964 23.1669C127.924 23.6869 128.404 24.7469 128.404 26.3469C128.404 27.8669 127.964 29.2869 127.084 30.6069C126.204 31.9269 125.024 33.1069 123.544 34.1469C122.064 35.1869 120.424 36.0469 118.624 36.7269C116.864 37.3669 115.084 37.7869 113.284 37.9869C113.244 38.1469 113.204 38.3269 113.164 38.5269C113.164 38.6869 113.164 38.9669 113.164 39.3669C113.164 39.5669 113.184 39.9269 113.224 40.4469C113.304 40.9269 113.484 41.4469 113.764 42.0069C114.044 42.5669 114.504 43.0469 115.144 43.4469C115.784 43.8469 116.664 44.0469 117.784 44.0469C119.464 44.0469 121.144 43.5869 122.824 42.6669C124.544 41.7069 126.144 40.4469 127.624 38.8869C129.144 37.3269 130.404 35.5869 131.404 33.6669L132.604 34.6269C131.524 37.0269 130.124 39.1269 128.404 40.9269C126.724 42.7269 124.844 44.1269 122.764 45.1269C120.724 46.1269 118.624 46.6269 116.464 46.6269ZM113.944 35.7669C114.984 35.6469 116.144 35.2869 117.424 34.6869C118.704 34.0869 119.924 33.3269 121.084 32.4069C122.284 31.4869 123.264 30.4869 124.024 29.4069C124.784 28.2869 125.164 27.1669 125.164 26.0469C125.164 25.6069 125.084 25.3069 124.924 25.1469C124.764 24.9869 124.504 24.9069 124.144 24.9069C123.224 24.9069 122.264 25.2469 121.264 25.9269C120.264 26.5669 119.284 27.4269 118.324 28.5069C117.364 29.5469 116.504 30.7069 115.744 31.9869C114.984 33.2669 114.384 34.5269 113.944 35.7669ZM141.053 45.5469C139.573 45.5469 138.373 45.1469 137.453 44.3469C136.533 43.5869 136.073 42.5469 136.073 41.2269C136.073 40.1069 136.353 38.9069 136.913 37.6269C137.473 36.3469 138.033 35.0869 138.593 33.8469C139.193 32.6069 139.493 31.5069 139.493 30.5469C139.493 29.6269 139.193 28.8669 138.593 28.2669C137.993 27.6269 137.293 27.1069 136.493 26.7069C135.613 28.9069 134.613 31.0469 133.493 33.1269C132.413 35.1669 131.533 36.7669 130.853 37.9269L129.953 36.1869C130.513 35.1469 131.253 33.6669 132.173 31.7469C133.093 29.8269 133.973 27.6869 134.813 25.3269C134.413 24.9269 134.213 24.3869 134.213 23.7069C134.213 22.6669 134.533 21.6869 135.173 20.7669C135.813 19.8469 136.433 19.3869 137.033 19.3869C137.513 19.3869 137.853 19.6669 138.053 20.2269C138.293 20.7469 138.413 21.1069 138.413 21.3069C138.413 21.5069 138.313 21.8669 138.113 22.3869C137.953 22.9069 137.833 23.2869 137.753 23.5269C137.793 23.9669 138.133 24.4069 138.773 24.8469C139.453 25.2469 140.213 25.7269 141.053 26.2869C141.893 26.8469 142.633 27.5469 143.273 28.3869C143.913 29.2269 144.233 30.2869 144.233 31.5669C144.233 32.7269 143.973 33.9069 143.453 35.1069C142.933 36.3069 142.413 37.4269 141.893 38.4669C141.373 39.5069 141.113 40.4069 141.113 41.1669C141.113 41.7269 141.253 42.1069 141.533 42.3069C141.853 42.4669 142.213 42.5469 142.613 42.5469C143.573 42.5469 144.573 42.2669 145.613 41.7069C146.653 41.1069 147.673 40.3469 148.673 39.4269C149.673 38.5069 150.553 37.5469 151.313 36.5469C152.073 35.5069 152.653 34.5669 153.053 33.7269L154.493 34.8069C153.733 36.5269 152.633 38.2269 151.193 39.9069C149.753 41.5469 148.153 42.9069 146.393 43.9869C144.633 45.0269 142.853 45.5469 141.053 45.5469ZM163.03 49.2069C160.91 49.0469 159.51 48.5269 158.83 47.6469C158.19 46.7669 157.87 45.6669 157.87 44.3469C157.87 42.8669 158.13 41.0869 158.65 39.0069C159.17 36.9269 159.85 34.7069 160.69 32.3469C161.53 29.9869 162.45 27.6469 163.45 25.3269C163.01 25.3669 162.31 25.4269 161.35 25.5069C160.43 25.5869 159.47 25.6869 158.47 25.8069C157.51 25.8869 156.73 25.9869 156.13 26.1069C156.25 24.8669 156.71 23.9069 157.51 23.2269C158.35 22.5069 159.41 21.9869 160.69 21.6669C162.01 21.3469 163.43 21.1669 164.95 21.1269C165.99 18.2469 167.05 15.4469 168.13 12.7269C169.25 9.9669 170.37 7.4469 171.49 5.1669C171.25 5.1269 170.97 5.1069 170.65 5.1069C170.33 5.0669 169.89 5.0469 169.33 5.0469C166.89 5.0469 164.99 5.3069 163.63 5.8269C162.31 6.3469 161.39 7.0869 160.87 8.0469C160.39 9.0069 160.15 10.1869 160.15 11.5869C160.15 12.5869 160.25 13.5069 160.45 14.3469C160.65 15.1469 160.95 16.0269 161.35 16.9869C159.47 16.6669 158.13 16.0669 157.33 15.1869C156.53 14.2669 156.13 13.1269 156.13 11.7669C156.13 9.6869 156.89 7.8469 158.41 6.2469C159.97 4.6469 162.05 3.3869 164.65 2.4669C167.29 1.5469 170.25 1.0869 173.53 1.0869C175.65 1.0869 177.77 1.2269 179.89 1.5069C182.01 1.7869 183.99 1.9269 185.83 1.9269C186.83 1.9269 187.79 1.8669 188.71 1.7469C189.63 1.5869 190.69 1.3469 191.89 1.0269C189.97 3.1469 188.39 4.5669 187.15 5.2869C185.95 6.0069 184.77 6.3669 183.61 6.3669C182.65 6.3669 181.41 6.2469 179.89 6.0069C178.37 5.7269 176.73 5.5269 174.97 5.4069C174.17 7.3269 173.31 9.6869 172.39 12.4869C171.47 15.2469 170.53 18.1469 169.57 21.1869C171.65 21.3469 173.53 21.5269 175.21 21.7269C176.89 21.9269 178.75 22.0669 180.79 22.1469C180.31 22.7869 179.81 23.3069 179.29 23.7069C178.81 24.0669 178.15 24.3269 177.31 24.4869C176.51 24.6469 175.39 24.7669 173.95 24.8469C172.55 24.9269 170.71 24.9869 168.43 25.0269C168.11 26.2269 167.77 27.4469 167.41 28.6869C167.05 29.9269 166.73 30.9869 166.45 31.8669C166.21 32.7469 166.05 33.2869 165.97 33.4869C164.85 37.3269 164.07 40.4669 163.63 42.9069C163.23 45.3069 163.03 47.4069 163.03 49.2069ZM186.659 46.6269C184.099 46.6269 182.119 45.9269 180.719 44.5269C179.359 43.1669 178.679 41.4469 178.679 39.3669C178.679 37.6069 179.119 35.7469 179.999 33.7869C180.919 31.7869 182.139 29.9269 183.659 28.2069C185.179 26.4469 186.859 25.0269 188.699 23.9469C190.539 22.8669 192.379 22.3269 194.219 22.3269C195.259 22.3269 196.239 22.6069 197.159 23.1669C198.119 23.6869 198.599 24.7469 198.599 26.3469C198.599 27.8669 198.159 29.2869 197.279 30.6069C196.399 31.9269 195.219 33.1069 193.739 34.1469C192.259 35.1869 190.619 36.0469 188.819 36.7269C187.059 37.3669 185.279 37.7869 183.479 37.9869C183.439 38.1469 183.399 38.3269 183.359 38.5269C183.359 38.6869 183.359 38.9669 183.359 39.3669C183.359 39.5669 183.379 39.9269 183.419 40.4469C183.499 40.9269 183.679 41.4469 183.959 42.0069C184.239 42.5669 184.699 43.0469 185.339 43.4469C185.979 43.8469 186.859 44.0469 187.979 44.0469C189.659 44.0469 191.339 43.5869 193.019 42.6669C194.739 41.7069 196.339 40.4469 197.819 38.8869C199.339 37.3269 200.599 35.5869 201.599 33.6669L202.799 34.6269C201.719 37.0269 200.319 39.1269 198.599 40.9269C196.919 42.7269 195.039 44.1269 192.959 45.1269C190.919 46.1269 188.819 46.6269 186.659 46.6269ZM184.139 35.7669C185.179 35.6469 186.339 35.2869 187.619 34.6869C188.899 34.0869 190.119 33.3269 191.279 32.4069C192.479 31.4869 193.459 30.4869 194.219 29.4069C194.979 28.2869 195.359 27.1669 195.359 26.0469C195.359 25.6069 195.279 25.3069 195.119 25.1469C194.959 24.9869 194.699 24.9069 194.339 24.9069C193.419 24.9069 192.459 25.2469 191.459 25.9269C190.459 26.5669 189.479 27.4269 188.519 28.5069C187.559 29.5469 186.699 30.7069 185.939 31.9869C185.179 33.2669 184.579 34.5269 184.139 35.7669ZM207.168 47.0469C205.168 47.0469 203.548 46.6269 202.308 45.7869C201.108 44.9869 200.248 43.9669 199.728 42.7269C199.208 41.4469 198.948 40.1469 198.948 38.8269C198.948 37.6669 199.108 36.7669 199.428 36.1269C199.748 35.4869 200.148 35.0269 200.628 34.7469C201.108 34.4269 201.548 34.1869 201.948 34.0269C202.388 33.8669 202.708 33.6869 202.908 33.4869C203.908 32.4469 204.928 31.2469 205.968 29.8869C207.048 28.4869 207.968 26.9469 208.728 25.2669V24.6669C208.728 23.0669 208.988 21.9469 209.508 21.3069C210.068 20.6269 210.708 20.2869 211.428 20.2869C211.908 20.2869 212.248 20.4069 212.448 20.6469C212.688 20.8869 212.828 21.1669 212.868 21.4869C212.868 21.7269 212.808 22.0069 212.688 22.3269C212.608 22.6469 212.568 23.0869 212.568 23.6469C212.568 24.8469 212.848 26.2269 213.408 27.7869C214.008 29.3069 214.588 30.9269 215.148 32.6469C215.748 34.3669 216.048 36.1269 216.048 37.9269C216.048 38.4069 216.028 38.8469 215.988 39.2469C215.948 39.6469 215.888 40.0269 215.808 40.3869C217.048 40.0669 218.268 39.3869 219.468 38.3469C220.668 37.2669 221.808 35.6869 222.888 33.6069L223.608 34.1469C222.848 36.4269 221.748 38.2669 220.308 39.6669C218.868 41.0269 217.188 41.8669 215.268 42.1869C214.628 43.8269 213.568 45.0469 212.088 45.8469C210.648 46.6469 209.008 47.0469 207.168 47.0469ZM211.068 40.2669C211.148 39.9869 211.188 39.6669 211.188 39.3069C211.228 38.9069 211.248 38.6069 211.248 38.4069C211.208 36.6069 210.968 34.8269 210.528 33.0669C210.088 31.3069 209.648 29.5069 209.208 27.6669C208.488 28.9069 207.648 30.2469 206.688 31.6869C205.728 33.1269 204.828 34.2869 203.988 35.1669C204.628 36.2469 205.568 37.2669 206.808 38.2269C208.048 39.1869 209.468 39.8669 211.068 40.2669ZM206.748 44.4069C207.548 44.4069 208.288 44.2069 208.968 43.8069C209.648 43.4069 210.188 42.8269 210.588 42.0669C208.948 41.7069 207.468 41.0669 206.148 40.1469C204.828 39.2269 203.808 38.2869 203.088 37.3269C202.528 37.4469 202.248 37.9869 202.248 38.9469C202.248 40.2669 202.628 41.5069 203.388 42.6669C204.148 43.8269 205.268 44.4069 206.748 44.4069ZM226.644 46.7469C224.884 46.7469 223.464 46.2269 222.384 45.1869C221.304 44.1469 220.764 42.5669 220.764 40.4469C220.764 38.8069 221.064 36.7669 221.664 34.3269C222.304 31.8869 223.104 29.3669 224.064 26.7669C223.784 26.6869 223.444 26.6269 223.044 26.5869C222.684 26.5069 222.324 26.3869 221.964 26.2269V24.3669C222.604 24.4469 223.124 24.5069 223.524 24.5469C223.964 24.5869 224.404 24.6269 224.844 24.6669C225.684 22.5469 226.584 20.5069 227.544 18.5469C228.544 16.5469 229.524 14.7669 230.484 13.2069C231.484 11.6469 232.424 10.4269 233.304 9.5469C234.184 8.6269 234.964 8.1669 235.644 8.1669C236.044 8.1669 236.424 8.3269 236.784 8.6469C237.144 8.9269 237.324 9.3469 237.324 9.9069C237.324 10.7069 236.904 11.8469 236.064 13.3269C235.264 14.8069 234.264 16.5469 233.064 18.5469C231.864 20.5069 230.704 22.6069 229.584 24.8469H231.444C233.204 24.8469 234.784 24.8269 236.184 24.7869C237.624 24.7069 239.084 24.5869 240.564 24.4269V26.4069C238.364 26.6069 236.344 26.7669 234.504 26.8869C232.664 27.0069 230.904 27.0869 229.224 27.1269H228.504C227.664 29.0869 226.924 31.1069 226.284 33.1869C225.684 35.2269 225.384 37.2269 225.384 39.1869C225.384 40.8269 225.644 41.9869 226.164 42.6669C226.684 43.3469 227.504 43.6869 228.624 43.6869C230.624 43.6869 232.664 42.7869 234.744 40.9869C236.864 39.1469 238.704 36.6669 240.264 33.5469L241.104 34.1469C240.064 36.5069 238.764 38.6469 237.204 40.5669C235.684 42.4869 234.024 43.9869 232.224 45.0669C230.424 46.1869 228.564 46.7469 226.644 46.7469Z" fill="#E85C1F"/>
</svg>
