<svg width="48" height="48" viewBox="0 0 48 48" fill="none" xmlns="http://www.w3.org/2000/svg">
<path d="M35.5177 27.5815C35.4242 27.5366 31.9249 25.8134 31.3031 25.5897C31.0492 25.4985 30.7773 25.4095 30.488 25.4095C30.0155 25.4095 29.6186 25.645 29.3094 26.1075C28.9598 26.6271 27.9016 27.864 27.5747 28.2335C27.532 28.2823 27.4737 28.3406 27.4388 28.3406C27.4074 28.3406 26.8659 28.1176 26.7019 28.0464C22.9481 26.4158 20.0988 22.4946 19.7081 21.8333C19.6523 21.7383 19.65 21.6951 19.6495 21.6951C19.6632 21.6448 19.7895 21.5182 19.8546 21.4529C20.0452 21.2644 20.2517 21.0158 20.4515 20.7753C20.5461 20.6614 20.6408 20.5473 20.7339 20.4398C21.0238 20.1025 21.1528 19.8407 21.3024 19.5374L21.3808 19.3799C21.7461 18.6541 21.4341 18.0417 21.3333 17.8439C21.2505 17.6784 19.7729 14.1124 19.6159 13.7377C19.2381 12.8337 18.7389 12.4127 18.0453 12.4127C17.9809 12.4127 18.0453 12.4127 17.7753 12.4241C17.4467 12.438 15.6568 12.6736 14.8654 13.1725C14.0262 13.7016 12.6064 15.3881 12.6064 18.3541C12.6064 21.0236 14.3005 23.544 15.0278 24.5026C15.0459 24.5268 15.0791 24.5759 15.1272 24.6463C17.9126 28.7142 21.385 31.7288 24.9051 33.135C28.2939 34.4887 29.8986 34.6451 30.8109 34.6451C30.8111 34.6451 30.8111 34.6451 30.8111 34.6451C31.1945 34.6451 31.5013 34.6151 31.772 34.5884L31.9438 34.572C33.1145 34.4683 35.6871 33.1352 36.2723 31.5089C36.7333 30.228 36.8549 28.8286 36.5482 28.3207C36.3381 27.9753 35.9761 27.8016 35.5177 27.5815Z" fill="#E85C1F"/>
<path d="M24.4261 0C11.4262 0 0.849939 10.4967 0.849939 23.3989C0.849939 27.5719 1.96672 31.6568 4.0823 35.2318L0.0330028 47.1765C-0.0424258 47.3992 0.0136781 47.6455 0.178406 47.8131C0.297315 47.9345 0.458614 48 0.623341 48C0.686458 48 0.750042 47.9905 0.812068 47.9707L13.2671 44.0129C16.6755 45.8339 20.5276 46.7952 24.4262 46.7952C37.4249 46.7953 48 36.2997 48 23.3989C48 10.4967 37.4249 0 24.4261 0ZM24.4261 41.9211C20.7576 41.9211 17.2045 40.8619 14.1503 38.8577C14.0476 38.7902 13.9284 38.7556 13.8084 38.7556C13.745 38.7556 13.6814 38.7653 13.6195 38.7849L7.38028 40.7682L9.39441 34.826C9.45956 34.6337 9.42698 34.4216 9.30698 34.2577C6.98116 31.0797 5.75171 27.3249 5.75171 23.3989C5.75171 13.1844 14.129 4.87418 24.4259 4.87418C34.7216 4.87418 43.0979 13.1844 43.0979 23.3989C43.0981 33.6122 34.7219 41.9211 24.4261 41.9211Z" fill="#E85C1F"/>
</svg>
